<?xml version="1.0" encoding="UTF-8"?>
<svg id="Layer_2" data-name="Layer 2" xmlns="http://www.w3.org/2000/svg" viewBox="0 0 392.5 306.74">
  <defs>
    <style>
      .cls-1, .cls-2, .cls-3 {
        stroke-miterlimit: 10;
      }

      .cls-1, .cls-2, .cls-3, .cls-4 {
        fill: none;
        stroke: #000;
      }

      .cls-1, .cls-2, .cls-4 {
        stroke-linecap: round;
      }

      .cls-1, .cls-4 {
        stroke-width: 14px;
      }

      .cls-2, .cls-3 {
        stroke-width: 12px;
      }

      .cls-4 {
        stroke-linejoin: round;
      }
    </style>
  </defs>
  <g id="Layer_1-2" data-name="Layer 1">
    <g>
      <polyline class="cls-2" points="182.5 88.78 182.5 10.78 7.5 88.78"/>
      <polyline class="cls-1" points="182.5 88.78 182.5 10.78 7.5 88.78"/>
    </g>
    <g>
      <polyline class="cls-2" points="208.5 8.28 208.5 88.78 234.5 88.78"/>
      <polyline class="cls-1" points="208.5 8.28 208.5 88.78 234.5 88.78"/>
    </g>
    <g>
      <line class="cls-3" x1="97.5" y1="48.78" x2="162.5" y2="48.78"/>
      <line class="cls-1" x1="97.5" y1="48.78" x2="162.5" y2="48.78"/>
    </g>
    <line class="cls-1" x1="195" y1="105.28" x2="195" y2="152.28"/>
    <line class="cls-1" x1="385" y1="117.28" x2="7" y2="117.28"/>
    <path class="cls-1" d="m191,121.28C118.68,164.73,10.31,177.33,7,177.28"/>
    <path class="cls-1" d="m200,121.28c72.35,43.29,182.02,56.04,185,56"/>
    <path class="cls-4" d="m133,171.28h114.8c2.46,0,3.21,3.33.99,4.39l-53.79,25.61"/>
    <path class="cls-1" d="m188,196.28l26,17s17.5,31.5-18,81c0,0-9-14-9-14"/>
    <line class="cls-4" x1="130.5" y1="221.78" x2="384.5" y2="221.78"/>
    <line class="cls-1" x1="272.5" y1="88.78" x2="385.5" y2="88.78"/>
    <circle cx="253.5" cy="88.78" r="7"/>
    <circle cx="111.5" cy="221.78" r="7"/>
    <line class="cls-1" x1="28.5" y1="222.02" x2="73.5" y2="222.02"/>
    <circle cx="92.5" cy="221.78" r="7"/>
    <circle cx="9.5" cy="221.78" r="7"/>
  </g>
</svg>