<svg id="Layer_2" data-name="Layer 2" xmlns="http://www.w3.org/2000/svg" viewBox="0 0 392.5 306.74"><defs><style>.cls-1,.cls-2{stroke-miterlimit:10}.cls-1,.cls-2,.cls-4{fill:none;stroke:#000;stroke-linecap:round}.cls-1,.cls-4{stroke-width:14px}.cls-2{stroke-width:12px}.cls-4{stroke-linejoin:round}</style></defs><g id="Layer_1-2" data-name="Layer 1"><path class="cls-2" d="M182.5 88.78v-78l-175 78"/><path class="cls-1" d="M182.5 88.78v-78l-175 78"/><path class="cls-2" d="M208.5 8.28v80.5h26"/><path class="cls-1" d="M208.5 8.28v80.5h26"/><path style="stroke-width:12px;fill:none;stroke:#000;stroke-miterlimit:10" d="M97.5 48.78h65"/><path class="cls-1" d="M97.5 48.78h65M195 105.28v47M385 117.28H7M191 121.28c-72.32 43.45-180.69 56.05-184 56M200 121.28c72.35 43.29 182.02 56.04 185 56"/><path class="cls-4" d="M133 171.28h114.8c2.46 0 3.21 3.33.99 4.39L195 201.28"/><path class="cls-1" d="m188 196.28 26 17s17.5 31.5-18 81l-9-14"/><path class="cls-4" d="M130.5 221.78h254"/><path class="cls-1" d="M272.5 88.78h113"/><circle cx="253.5" cy="88.78" r="7"/><circle cx="111.5" cy="221.78" r="7"/><path class="cls-1" d="M28.5 222.02h45"/><circle cx="92.5" cy="221.78" r="7"/><circle cx="9.5" cy="221.78" r="7"/></g></svg>